<svg xmlns="http://www.w3.org/2000/svg" width="346.667" height="346.667" preserveAspectRatio="xMidYMid meet" version="1.0" viewBox="0 0 260 260"><metadata>Created by potrace 1.14, written by Peter Selinger 2001-2017</metadata><g fill="#000" stroke="none"><path d="M1284 2559 c-558 -42 -1003 -376 -1158 -867 -45 -144 -59 -257 -53 -437 8 -223 40 -352 132 -535 167 -331 477 -561 880 -652 115 -25 419 -36 551 -19 344 46 633 196 825 429 38 46 69 87 69 92 0 11 -566 514 -582 518 -8 1 -31 -20 -52 -48 -175 -229 -444 -302 -677 -184 -104 52 -194 181 -219 313 -13 69 -13 193 0 262 15 79 70 187 122 241 141 144 401 170 588 59 60 -36 150 -120 210 -198 l25 -31 275 244 c151 135 284 253 294 264 19 19 19 20 -9 59 -46 68 -176 194 -255 250 -260 183 -601 268 -966 240z" transform="translate(0.000000,260.000000) scale(0.100000,-0.100000)"/></g></svg>